<svg id="visual" viewBox="0 0 960 540" width="960" height="540" xmlns="http://www.w3.org/2000/svg" xmlns:xlink="http://www.w3.org/1999/xlink" version="1.1"><rect x="0" y="0" width="960" height="540" fill="#141414"></rect><defs><linearGradient id="grad1_0" x1="43.8%" y1="100%" x2="100%" y2="0%"><stop offset="14.444444444444446%" stop-color="#0d0d0d" stop-opacity="1"></stop><stop offset="85.55555555555554%" stop-color="#0d0d0d" stop-opacity="1"></stop></linearGradient></defs><defs><linearGradient id="grad1_1" x1="43.8%" y1="100%" x2="100%" y2="0%"><stop offset="14.444444444444446%" stop-color="#0d0d0d" stop-opacity="1"></stop><stop offset="85.55555555555554%" stop-color="#111111" stop-opacity="1"></stop></linearGradient></defs><defs><linearGradient id="grad1_2" x1="43.8%" y1="100%" x2="100%" y2="0%"><stop offset="14.444444444444446%" stop-color="#141414" stop-opacity="1"></stop><stop offset="85.55555555555554%" stop-color="#111111" stop-opacity="1"></stop></linearGradient></defs><defs><linearGradient id="grad2_0" x1="0%" y1="100%" x2="56.3%" y2="0%"><stop offset="14.444444444444446%" stop-color="#0d0d0d" stop-opacity="1"></stop><stop offset="85.55555555555554%" stop-color="#0d0d0d" stop-opacity="1"></stop></linearGradient></defs><defs><linearGradient id="grad2_1" x1="0%" y1="100%" x2="56.3%" y2="0%"><stop offset="14.444444444444446%" stop-color="#111111" stop-opacity="1"></stop><stop offset="85.55555555555554%" stop-color="#0d0d0d" stop-opacity="1"></stop></linearGradient></defs><defs><linearGradient id="grad2_2" x1="0%" y1="100%" x2="56.3%" y2="0%"><stop offset="14.444444444444446%" stop-color="#111111" stop-opacity="1"></stop><stop offset="85.55555555555554%" stop-color="#141414" stop-opacity="1"></stop></linearGradient></defs><g transform="translate(960, 540)"><path d="M-486 0C-452.7 -52.5 -419.5 -104.9 -401 -166.1C-382.5 -227.2 -378.8 -297.1 -343.7 -343.7C-308.5 -390.2 -242 -413.5 -179.5 -433.3C-117 -453.1 -58.5 -469.6 0 -486L0 0Z" fill="#121212"></path><path d="M-324 0C-301.8 -35 -279.6 -70 -267.3 -110.7C-255 -151.5 -252.5 -198.1 -229.1 -229.1C-205.7 -260.1 -161.3 -275.6 -119.7 -288.9C-78 -302.1 -39 -313 0 -324L0 0Z" fill="#0f0f0f"></path><path d="M-162 0C-150.9 -17.5 -139.8 -35 -133.7 -55.4C-127.5 -75.7 -126.3 -99 -114.6 -114.6C-102.8 -130.1 -80.7 -137.8 -59.8 -144.4C-39 -151 -19.5 -156.5 0 -162L0 0Z" fill="#0d0d0d"></path></g><g transform="translate(0, 0)"><path d="M486 0C470 62 454.1 124 426.8 176.8C399.6 229.6 361 273.2 321 321C281.1 368.8 239.7 420.8 186 449C132.2 477.2 66.1 481.6 0 486L0 0Z" fill="#121212"></path><path d="M324 0C313.4 41.3 302.7 82.7 284.6 117.9C266.4 153.1 240.7 182.2 214 214C187.4 245.9 159.8 280.5 124 299.3C88.2 318.1 44.1 321.1 0 324L0 0Z" fill="#0f0f0f"></path><path d="M162 0C156.7 20.7 151.4 41.3 142.3 58.9C133.2 76.5 120.3 91.1 107 107C93.7 122.9 79.9 140.3 62 149.7C44.1 159.1 22 160.5 0 162L0 0Z" fill="#0d0d0d"></path></g></svg>