<svg id="visual" viewBox="0 0 900 600" width="900" height="600" xmlns="http://www.w3.org/2000/svg" xmlns:xlink="http://www.w3.org/1999/xlink" version="1.1"><rect x="0" y="0" width="900" height="600" fill="#141414"></rect><defs><linearGradient id="grad1_0" x1="33.3%" y1="0%" x2="100%" y2="100%"><stop offset="20%" stop-color="#0d0d0d" stop-opacity="1"></stop><stop offset="80%" stop-color="#0d0d0d" stop-opacity="1"></stop></linearGradient></defs><defs><linearGradient id="grad1_1" x1="33.3%" y1="0%" x2="100%" y2="100%"><stop offset="20%" stop-color="#0d0d0d" stop-opacity="1"></stop><stop offset="80%" stop-color="#101010" stop-opacity="1"></stop></linearGradient></defs><defs><linearGradient id="grad1_2" x1="33.3%" y1="0%" x2="100%" y2="100%"><stop offset="20%" stop-color="#121212" stop-opacity="1"></stop><stop offset="80%" stop-color="#101010" stop-opacity="1"></stop></linearGradient></defs><defs><linearGradient id="grad1_3" x1="33.3%" y1="0%" x2="100%" y2="100%"><stop offset="20%" stop-color="#121212" stop-opacity="1"></stop><stop offset="80%" stop-color="#141414" stop-opacity="1"></stop></linearGradient></defs><defs><linearGradient id="grad2_0" x1="0%" y1="0%" x2="66.7%" y2="100%"><stop offset="20%" stop-color="#0d0d0d" stop-opacity="1"></stop><stop offset="80%" stop-color="#0d0d0d" stop-opacity="1"></stop></linearGradient></defs><defs><linearGradient id="grad2_1" x1="0%" y1="0%" x2="66.7%" y2="100%"><stop offset="20%" stop-color="#101010" stop-opacity="1"></stop><stop offset="80%" stop-color="#0d0d0d" stop-opacity="1"></stop></linearGradient></defs><defs><linearGradient id="grad2_2" x1="0%" y1="0%" x2="66.7%" y2="100%"><stop offset="20%" stop-color="#101010" stop-opacity="1"></stop><stop offset="80%" stop-color="#121212" stop-opacity="1"></stop></linearGradient></defs><defs><linearGradient id="grad2_3" x1="0%" y1="0%" x2="66.7%" y2="100%"><stop offset="20%" stop-color="#141414" stop-opacity="1"></stop><stop offset="80%" stop-color="#121212" stop-opacity="1"></stop></linearGradient></defs><g transform="translate(900, 0)"><path d="M0 540.8C-78.4 542.4 -156.9 544 -207 499.7C-257.1 455.4 -278.8 365.2 -304.1 304.1C-329.3 242.9 -358.1 210.8 -398.2 164.9C-438.2 119.1 -489.5 59.5 -540.8 0L0 0Z" fill="#131313"></path><path d="M0 405.6C-58.8 406.8 -117.7 408 -155.2 374.7C-192.8 341.5 -209.1 273.9 -228 228C-247 182.2 -268.6 158.1 -298.6 123.7C-328.7 89.3 -367.2 44.7 -405.6 0L0 0Z" fill="#111111"></path><path d="M0 270.4C-39.2 271.2 -78.4 272 -103.5 249.8C-128.5 227.7 -139.4 182.6 -152 152C-164.7 121.5 -179.1 105.4 -199.1 82.5C-219.1 59.5 -244.8 29.8 -270.4 0L0 0Z" fill="#0e0e0e"></path><path d="M0 135.2C-19.6 135.6 -39.2 136 -51.7 124.9C-64.3 113.8 -69.7 91.3 -76 76C-82.3 60.7 -89.5 52.7 -99.5 41.2C-109.6 29.8 -122.4 14.9 -135.2 0L0 0Z" fill="#0d0d0d"></path></g><g transform="translate(0, 600)"><path d="M0 -540.8C79 -541.9 158 -543 207 -499.7C255.9 -456.3 274.8 -368.5 312.5 -312.5C350.3 -256.6 406.9 -232.4 448.1 -185.6C489.3 -138.8 515.1 -69.4 540.8 0L0 0Z" fill="#131313"></path><path d="M0 -405.6C59.3 -406.4 118.5 -407.3 155.2 -374.7C191.9 -342.2 206.1 -276.4 234.4 -234.4C262.7 -192.4 305.2 -174.3 336.1 -139.2C367 -104.1 386.3 -52.1 405.6 0L0 0Z" fill="#111111"></path><path d="M0 -270.4C39.5 -271 79 -271.5 103.5 -249.8C128 -228.2 137.4 -184.3 156.3 -156.3C175.1 -128.3 203.4 -116.2 224 -92.8C244.6 -69.4 257.5 -34.7 270.4 0L0 0Z" fill="#0e0e0e"></path><path d="M0 -135.2C19.8 -135.5 39.5 -135.8 51.7 -124.9C64 -114.1 68.7 -92.1 78.1 -78.1C87.6 -64.1 101.7 -58.1 112 -46.4C122.3 -34.7 128.8 -17.4 135.2 0L0 0Z" fill="#0d0d0d"></path></g></svg>