<svg id="visual" viewBox="0 0 1080 500" width="1080" height="500" xmlns="http://www.w3.org/2000/svg" xmlns:xlink="http://www.w3.org/1999/xlink" version="1.1"><path d="M0 305L16.3 294.5C32.7 284 65.3 263 98 261.5C130.7 260 163.3 278 196.2 284.3C229 290.7 262 285.3 294.8 275.3C327.7 265.3 360.3 250.7 393 248.7C425.7 246.7 458.3 257.3 491 256.7C523.7 256 556.3 244 589 253.5C621.7 263 654.3 294 687 295.5C719.7 297 752.3 269 785.2 267.2C818 265.3 851 289.7 883.8 288.5C916.7 287.3 949.3 260.7 982 259.7C1014.7 258.7 1047.3 283.3 1063.7 295.7L1080 308L1080 501L1063.7 501C1047.3 501 1014.7 501 982 501C949.3 501 916.7 501 883.8 501C851 501 818 501 785.2 501C752.3 501 719.7 501 687 501C654.3 501 621.7 501 589 501C556.3 501 523.7 501 491 501C458.3 501 425.7 501 393 501C360.3 501 327.7 501 294.8 501C262 501 229 501 196.2 501C163.3 501 130.7 501 98 501C65.3 501 32.7 501 16.3 501L0 501Z" fill="#21379b"></path><path d="M0 347L16.3 345.5C32.7 344 65.3 341 98 329.7C130.7 318.3 163.3 298.7 196.2 292.2C229 285.7 262 292.3 294.8 299C327.7 305.7 360.3 312.3 393 315.5C425.7 318.7 458.3 318.3 491 322.3C523.7 326.3 556.3 334.7 589 337C621.7 339.3 654.3 335.7 687 337.2C719.7 338.7 752.3 345.3 785.2 343.7C818 342 851 332 883.8 326.5C916.7 321 949.3 320 982 316.5C1014.7 313 1047.3 307 1063.7 304L1080 301L1080 501L1063.7 501C1047.3 501 1014.7 501 982 501C949.3 501 916.7 501 883.8 501C851 501 818 501 785.2 501C752.3 501 719.7 501 687 501C654.3 501 621.7 501 589 501C556.3 501 523.7 501 491 501C458.3 501 425.7 501 393 501C360.3 501 327.7 501 294.8 501C262 501 229 501 196.2 501C163.3 501 130.7 501 98 501C65.3 501 32.7 501 16.3 501L0 501Z" fill="#1c3090"></path><path d="M0 351L16.3 356.7C32.7 362.3 65.3 373.7 98 367C130.7 360.3 163.3 335.7 196.2 333.2C229 330.7 262 350.3 294.8 359C327.7 367.7 360.3 365.3 393 358.5C425.7 351.7 458.3 340.3 491 343.8C523.7 347.3 556.3 365.7 589 371.8C621.7 378 654.3 372 687 367.7C719.7 363.3 752.3 360.7 785.2 359.7C818 358.7 851 359.3 883.8 358.2C916.7 357 949.3 354 982 348.3C1014.7 342.7 1047.3 334.3 1063.7 330.2L1080 326L1080 501L1063.7 501C1047.3 501 1014.7 501 982 501C949.3 501 916.7 501 883.8 501C851 501 818 501 785.2 501C752.3 501 719.7 501 687 501C654.3 501 621.7 501 589 501C556.3 501 523.7 501 491 501C458.3 501 425.7 501 393 501C360.3 501 327.7 501 294.8 501C262 501 229 501 196.2 501C163.3 501 130.7 501 98 501C65.3 501 32.7 501 16.3 501L0 501Z" fill="#182a85"></path><path d="M0 370L16.3 370.3C32.7 370.7 65.3 371.3 98 369.2C130.7 367 163.3 362 196.2 365.3C229 368.7 262 380.3 294.8 380.5C327.7 380.7 360.3 369.3 393 364.7C425.7 360 458.3 362 491 361.3C523.7 360.7 556.3 357.3 589 355.3C621.7 353.3 654.3 352.7 687 359.5C719.7 366.3 752.3 380.7 785.2 387.7C818 394.7 851 394.3 883.8 389.3C916.7 384.3 949.3 374.7 982 378.7C1014.7 382.7 1047.3 400.3 1063.7 409.2L1080 418L1080 501L1063.7 501C1047.3 501 1014.7 501 982 501C949.3 501 916.7 501 883.8 501C851 501 818 501 785.2 501C752.3 501 719.7 501 687 501C654.3 501 621.7 501 589 501C556.3 501 523.7 501 491 501C458.3 501 425.7 501 393 501C360.3 501 327.7 501 294.8 501C262 501 229 501 196.2 501C163.3 501 130.7 501 98 501C65.3 501 32.7 501 16.3 501L0 501Z" fill="#12247a"></path><path d="M0 418L16.3 416.5C32.7 415 65.3 412 98 412.8C130.7 413.7 163.3 418.3 196.2 421.5C229 424.7 262 426.3 294.8 426.2C327.7 426 360.3 424 393 423.2C425.7 422.3 458.3 422.7 491 424.7C523.7 426.7 556.3 430.3 589 424.8C621.7 419.3 654.3 404.7 687 405C719.7 405.3 752.3 420.7 785.2 421.2C818 421.7 851 407.3 883.8 407.2C916.7 407 949.3 421 982 424.5C1014.7 428 1047.3 421 1063.7 417.5L1080 414L1080 501L1063.7 501C1047.3 501 1014.7 501 982 501C949.3 501 916.7 501 883.8 501C851 501 818 501 785.2 501C752.3 501 719.7 501 687 501C654.3 501 621.7 501 589 501C556.3 501 523.7 501 491 501C458.3 501 425.7 501 393 501C360.3 501 327.7 501 294.8 501C262 501 229 501 196.2 501C163.3 501 130.7 501 98 501C65.3 501 32.7 501 16.3 501L0 501Z" fill="#0c1d6f"></path><path d="M0 432L16.3 436.2C32.7 440.3 65.3 448.7 98 449.3C130.7 450 163.3 443 196.2 442C229 441 262 446 294.8 451.5C327.7 457 360.3 463 393 460.2C425.7 457.3 458.3 445.7 491 444.3C523.7 443 556.3 452 589 452C621.7 452 654.3 443 687 444C719.7 445 752.3 456 785.2 455.5C818 455 851 443 883.8 442.8C916.7 442.7 949.3 454.3 982 458.3C1014.7 462.3 1047.3 458.7 1063.7 456.8L1080 455L1080 501L1063.7 501C1047.3 501 1014.7 501 982 501C949.3 501 916.7 501 883.8 501C851 501 818 501 785.2 501C752.3 501 719.7 501 687 501C654.3 501 621.7 501 589 501C556.3 501 523.7 501 491 501C458.3 501 425.7 501 393 501C360.3 501 327.7 501 294.8 501C262 501 229 501 196.2 501C163.3 501 130.7 501 98 501C65.3 501 32.7 501 16.3 501L0 501Z" fill="#061764"></path></svg>