<svg id="visual" viewBox="0 0 1080 50" width="1080" height="50" xmlns="http://www.w3.org/2000/svg" xmlns:xlink="http://www.w3.org/1999/xlink" version="1.1"><path d="M0 5L5.8 6.3C11.7 7.7 23.3 10.3 35 11.3C46.7 12.3 58.3 11.7 70 11.2C81.7 10.7 93.3 10.3 104.8 10.2C116.3 10 127.7 10 139.2 9.7C150.7 9.3 162.3 8.7 174 7.7C185.7 6.7 197.3 5.3 209 6C220.7 6.7 232.3 9.3 244 9.3C255.7 9.3 267.3 6.7 279 6.5C290.7 6.3 302.3 8.7 313.8 9C325.3 9.3 336.7 7.7 348.2 7C359.7 6.3 371.3 6.7 383 8C394.7 9.3 406.3 11.7 418 12.2C429.7 12.7 441.3 11.3 453 10.8C464.7 10.3 476.3 10.7 488 9.7C499.7 8.7 511.3 6.3 522.8 5.5C534.3 4.7 545.7 5.3 557.2 5.3C568.7 5.3 580.3 4.7 592 4.5C603.7 4.3 615.3 4.7 627 6.2C638.7 7.7 650.3 10.3 662 11.3C673.7 12.3 685.3 11.7 697 10.8C708.7 10 720.3 9 731.8 8.2C743.3 7.3 754.7 6.7 766.2 7.3C777.7 8 789.3 10 801 9.8C812.7 9.7 824.3 7.3 836 7.5C847.7 7.7 859.3 10.3 871 10.7C882.7 11 894.3 9 906 7.7C917.7 6.3 929.3 5.7 940.8 6.5C952.3 7.3 963.7 9.7 975.2 10.2C986.7 10.7 998.3 9.3 1010 9.3C1021.7 9.3 1033.3 10.7 1045 10.5C1056.7 10.3 1068.3 8.7 1074.2 7.8L1080 7" fill="none" stroke="#172259" stroke-width="40" stroke-linecap="round" stroke-linejoin="miter"></path></svg>