<svg id="visual" viewBox="0 0 960 540" width="960" height="540" xmlns="http://www.w3.org/2000/svg" xmlns:xlink="http://www.w3.org/1999/xlink" version="1.1"><rect x="0" y="0" width="960" height="540" fill="#001122"></rect><path d="M0 175L13.3 158.5C26.7 142 53.3 109 80 92.8C106.7 76.7 133.3 77.3 160 98C186.7 118.7 213.3 159.3 240 165.2C266.7 171 293.3 142 320 135.3C346.7 128.7 373.3 144.3 400 152.3C426.7 160.3 453.3 160.7 480 156.5C506.7 152.3 533.3 143.7 560 132.2C586.7 120.7 613.3 106.3 640 99.3C666.7 92.3 693.3 92.7 720 102.8C746.7 113 773.3 133 800 133.3C826.7 133.7 853.3 114.3 880 118.2C906.7 122 933.3 149 946.7 162.5L960 176L960 0L946.7 0C933.3 0 906.7 0 880 0C853.3 0 826.7 0 800 0C773.3 0 746.7 0 720 0C693.3 0 666.7 0 640 0C613.3 0 586.7 0 560 0C533.3 0 506.7 0 480 0C453.3 0 426.7 0 400 0C373.3 0 346.7 0 320 0C293.3 0 266.7 0 240 0C213.3 0 186.7 0 160 0C133.3 0 106.7 0 80 0C53.3 0 26.7 0 13.3 0L0 0Z" fill="#283ca5" stroke-linecap="round" stroke-linejoin="miter"></path></svg>